<svg width="144" height="144" xmlns="http://www.w3.org/2000/svg"><path d="M77.815 52.225a.886.886 0 0 0-.572-.225c-.044 0-.091 0-.133.016H57.921c-.513 0-.994.209-1.341.555a1.87 1.87 0 0 0-.557 1.333V71.8l-.023.015v2.217l.023-.013v.209c1.424-.927 2.685-1.823 4.125-2.689l5.046 5.983 5.705-6.763 5.03 5.965 7.807-5.345 1.771 1.215 2.464 1.686V63.022c.016-.075.029-.135.029-.209a.931.931 0 0 0-.284-.645l-9.802-9.881a.167.167 0 0 0-.07-.059l-.029-.003zM58.486 70.458V54.682c0-.059.017-.104.058-.136a.2.2 0 0 1 .138-.06h17.163v6.809c0 .708.287 1.544.752 2.009.468.465 1.453.847 2.163.847h6.75v6.454l-1.771-1.214-7.368 5.046-5.467-6.484L65.2 74.72l-4.575-5.427-2.139 1.165zm27.028 8.526-1.771-1.215-9.2 6.298-3.635-4.309-5.714 6.773-6.563-7.785-.151.071c-.021 3.546-.049 10.53.067 10.648.033.042.093.058.139.058 2.522 0 26.546.114 26.722-.058.045-.03.109-.089.109-.134V78.984h-.003zm-29.491.973-.023.012v-1.653l3.104-1.813 6.094 7.226 5.71-6.77 4.069 4.824 8.766-5.999 1.771 1.214 2.463 1.686v11.428c0 .524-.209.99-.555 1.335a1.9 1.9 0 0 1-1.34.553H57.921a1.885 1.885 0 0 1-1.341-.553 1.877 1.877 0 0 1-.557-1.335V79.957zm22.064-18.852v-6.196l7.001 7.064h-6.129a.922.922 0 0 1-.617-.254.889.889 0 0 1-.255-.614z"/></svg>